<svg xmlns="http://www.w3.org/2000/svg" width="32" height="32" fill="none"><path fill="url(#a)" d="M16 10.667A5.332 5.332 0 0 0 10.668 16a5.332 5.332 0 0 0 5.334 5.333A5.332 5.332 0 0 0 21.334 16a5.332 5.332 0 0 0-5.333-5.333Zm11.92 4A11.993 11.993 0 0 0 17.335 4.08V2.667c0-.734-.6-1.334-1.333-1.334-.734 0-1.334.6-1.334 1.334V4.08A11.992 11.992 0 0 0 4.081 14.667H2.667c-.733 0-1.333.6-1.333 1.333s.6 1.333 1.333 1.333h1.414A11.992 11.992 0 0 0 14.667 27.92v1.413c0 .734.6 1.334 1.334 1.334.733 0 1.333-.6 1.333-1.334V27.92a11.992 11.992 0 0 0 10.587-10.587h1.413c.733 0 1.333-.6 1.333-1.333s-.6-1.333-1.333-1.333h-1.413ZM16 25.333A9.327 9.327 0 0 1 6.668 16a9.327 9.327 0 0 1 9.334-9.333A9.327 9.327 0 0 1 25.334 16a9.327 9.327 0 0 1-9.333 9.333Z"/><defs><linearGradient id="a" x1="16.001" x2="16.001" y1="1.333" y2="30.667" gradientUnits="userSpaceOnUse"><stop stop-color="#FFBF00"/><stop offset="1" stop-color="#E4A30B"/></linearGradient></defs></svg>